<?xml version="1.0" encoding="UTF-8" standalone="no"?>
<!-- Created with Inkscape (http://www.inkscape.org/) -->

<svg
   width="64pt"
   height="64pt"
   viewBox="0 0 22.577778 22.577778"
   version="1.1"
   id="svg831"
   inkscape:version="1.1.1 (3bf5ae0d25, 2021-09-20)"
   sodipodi:docname="1 - Trophy.svg"
   inkscape:export-filename="C:\Users\User\Desktop\DESEMBER\3 - Pencil and Sharpener.png"
   inkscape:export-xdpi="576"
   inkscape:export-ydpi="576"
   xmlns:inkscape="http://www.inkscape.org/namespaces/inkscape"
   xmlns:sodipodi="http://sodipodi.sourceforge.net/DTD/sodipodi-0.dtd"
   xmlns="http://www.w3.org/2000/svg"
   xmlns:svg="http://www.w3.org/2000/svg"
   xmlns:rdf="http://www.w3.org/1999/02/22-rdf-syntax-ns#"
   xmlns:cc="http://creativecommons.org/ns#"
   xmlns:dc="http://purl.org/dc/elements/1.1/">
  <defs
     id="defs825">
    <pattern
       id="EMFhbasepattern"
       patternUnits="userSpaceOnUse"
       width="6"
       height="6"
       x="0"
       y="0" />
    <pattern
       id="EMFhbasepattern-9"
       patternUnits="userSpaceOnUse"
       width="6"
       height="6"
       x="0"
       y="0" />
    <pattern
       id="EMFhbasepattern-0"
       patternUnits="userSpaceOnUse"
       width="6"
       height="6"
       x="0"
       y="0" />
    <pattern
       id="EMFhbasepattern-7"
       patternUnits="userSpaceOnUse"
       width="6"
       height="6"
       x="0"
       y="0" />
    <pattern
       id="EMFhbasepattern-2"
       patternUnits="userSpaceOnUse"
       width="6"
       height="6"
       x="0"
       y="0" />
    <pattern
       id="EMFhbasepattern-98"
       patternUnits="userSpaceOnUse"
       width="6"
       height="6"
       x="0"
       y="0" />
    <pattern
       id="EMFhbasepattern-6"
       patternUnits="userSpaceOnUse"
       width="6"
       height="6"
       x="0"
       y="0" />
    <pattern
       id="EMFhbasepattern-01"
       patternUnits="userSpaceOnUse"
       width="6"
       height="6"
       x="0"
       y="0" />
    <pattern
       id="EMFhbasepattern-07"
       patternUnits="userSpaceOnUse"
       width="6"
       height="6"
       x="0"
       y="0" />
    <pattern
       id="EMFhbasepattern-8"
       patternUnits="userSpaceOnUse"
       width="6"
       height="6"
       x="0"
       y="0" />
    <pattern
       id="EMFhbasepattern-4"
       patternUnits="userSpaceOnUse"
       width="6"
       height="6"
       x="0"
       y="0" />
    <pattern
       id="EMFhbasepattern-40"
       patternUnits="userSpaceOnUse"
       width="6"
       height="6"
       x="0"
       y="0" />
    <pattern
       id="EMFhbasepattern-08"
       patternUnits="userSpaceOnUse"
       width="6"
       height="6"
       x="0"
       y="0" />
    <pattern
       id="EMFhbasepattern-04"
       patternUnits="userSpaceOnUse"
       width="6"
       height="6"
       x="0"
       y="0" />
    <pattern
       id="EMFhbasepattern-014"
       patternUnits="userSpaceOnUse"
       width="6"
       height="6"
       x="0"
       y="0" />
    <pattern
       id="EMFhbasepattern-27"
       patternUnits="userSpaceOnUse"
       width="6"
       height="6"
       x="0"
       y="0" />
    <pattern
       id="EMFhbasepattern-09"
       patternUnits="userSpaceOnUse"
       width="6"
       height="6"
       x="0"
       y="0" />
    <pattern
       id="EMFhbasepattern-5"
       patternUnits="userSpaceOnUse"
       width="6"
       height="6"
       x="0"
       y="0" />
    <pattern
       id="EMFhbasepattern-018"
       patternUnits="userSpaceOnUse"
       width="6"
       height="6"
       x="0"
       y="0" />
  </defs>
  <sodipodi:namedview
     id="base"
     pagecolor="#ffffff"
     bordercolor="#666666"
     borderopacity="1.0"
     inkscape:pageopacity="0.0"
     inkscape:pageshadow="2"
     inkscape:zoom="4.2070313"
     inkscape:cx="42.666667"
     inkscape:cy="42.666667"
     inkscape:document-units="pt"
     inkscape:current-layer="layer1"
     showgrid="false"
     units="pt"
     inkscape:window-width="960"
     inkscape:window-height="1013"
     inkscape:window-x="951"
     inkscape:window-y="-9"
     inkscape:window-maximized="0"
     inkscape:pagecheckerboard="true"
     inkscape:showpageshadow="false"
     inkscape:object-paths="false"
     inkscape:snap-intersection-paths="true"
     inkscape:snap-smooth-nodes="true"
     inkscape:snap-midpoints="true"
     showguides="true"
     inkscape:snap-bbox="true"
     inkscape:bbox-nodes="true"
     inkscape:snap-nodes="false"
     inkscape:snap-global="true">
    <inkscape:grid
       type="xygrid"
       id="grid1378" />
    <sodipodi:guide
       position="0.97013831,21.607643"
       orientation="78.000048,0"
       id="guide1380"
       inkscape:locked="false" />
    <sodipodi:guide
       position="0.97013831,0.97013129"
       orientation="0,78.000005"
       id="guide1382"
       inkscape:locked="false" />
    <sodipodi:guide
       position="21.607639,0.97013129"
       orientation="-78.000048,0"
       id="guide1384"
       inkscape:locked="false" />
    <sodipodi:guide
       position="21.607639,21.607643"
       orientation="0,-78.000005"
       id="guide1386"
       inkscape:locked="false" />
  </sodipodi:namedview>
  <metadata
     id="metadata828">
    <rdf:RDF>
      <cc:Work
         rdf:about="">
        <dc:format>image/svg+xml</dc:format>
        <dc:type
           rdf:resource="http://purl.org/dc/dcmitype/StillImage" />
      </cc:Work>
    </rdf:RDF>
  </metadata>
  <g
     inkscape:label="Icon"
     inkscape:groupmode="layer"
     id="layer1"
     transform="translate(0,-274.42223)"
     style="display:inline">
    <path
       id="rect1463"
       style="color:#000000;display:inline;fill:#000000;stroke-width:1;stroke-linecap:round;stroke-linejoin:round;-inkscape-stroke:none"
       d="m 4.6309834,277.88884 c -0.915233,0 -1.6630162,0.74843 -1.6630162,1.66366 v 2.83064 H 1.3017023 c -0.1828217,7e-4 -0.33084907,0.14874 -0.33156138,0.33156 -6.6577e-4,0.18384 0.14772788,0.33345 0.33156138,0.33417 h 0.3341643 v 2.32939 H 1.3017023 c -0.1838335,7.3e-4 -0.33228037,0.15033 -0.33156138,0.33415 6.6564e-4,0.18283 0.14873968,0.33085 0.33156138,0.33157 h 1.0584008 c -0.037587,0.10479 -0.058514,0.21727 -0.058511,0.33416 v 0.49865 c 0,0.11612 0.020704,0.22819 0.057862,0.33221 H 1.8029472 c -0.1848521,-7.3e-4 -0.3348834,0.14932 -0.3341611,0.33416 6.658e-4,0.18384 0.1503276,0.33228 0.3341611,0.33157 h 0.3315647 v 2.32939 H 1.8029472 c -0.5244188,0.0189 -0.82208481,0.5417 -0.83280628,0.99988 v 0.33157 c 0,1.09907 0.89875968,1.99783 1.99782628,1.99783 H 19.609813 c 1.09907,0 1.997826,-0.89876 1.997826,-1.99783 V 291.204 c 4e-6,-0.54756 -0.452325,-0.99988 -0.99989,-0.99988 H 19.609813 V 279.5525 c 0,-0.91523 -0.747784,-1.66366 -1.663017,-1.66366 z m 0,0.66573 H 17.946796 c 0.555442,0 0.99729,0.44249 0.99729,0.99793 v 10.65162 h -8.489953 c 0.145991,-0.1937 0.251405,-0.42013 0.301657,-0.66573 h 6.190467 c 0.731404,0 1.332104,-0.5981 1.332104,-1.3295 v -7.6565 c 0,-0.73139 -0.6007,-1.3321 -1.332104,-1.3321 H 5.6289197 c -0.7313963,0 -1.3294976,0.6007 -1.3295009,1.3321 v 1.83075 H 3.633693 v -2.83064 c 0,-0.55544 0.4418488,-0.99793 0.9972904,-0.99793 z m 0.9979363,1.3321 H 16.946257 c 0.371615,0 0.666378,0.29412 0.666378,0.66572 v 7.6565 c 0,0.37161 -0.294763,0.66572 -0.666378,0.66572 h -6.15731 c -4e-6,-0.37975 -0.129094,-0.73101 -0.345216,-1.01224 0.475565,-0.0747 0.843861,-0.49028 0.843858,-0.98558 v -0.49865 c 1.3e-5,-0.54757 -0.449718,-0.99988 -0.997287,-0.99988 H 9.9554881 c 0.2098539,-0.27843 0.3348139,-0.62433 0.3348139,-0.99795 v -0.33415 c -4e-6,-0.91524 -0.748436,-1.66302 -1.6636658,-1.66302 H 4.9651444 v -1.83075 c 0,-0.37161 0.2921605,-0.66572 0.6637753,-0.66572 z m 8.4203933,2.84494 -1.412717,1.41336 c -0.130392,0.13006 -0.130392,0.34128 0,0.47134 0.130133,0.13083 0.341856,0.13083 0.471989,0 l 1.410114,-1.41271 c 0.130825,-0.13014 0.130825,-0.34186 0,-0.47199 -0.186068,-0.14302 -0.340446,-0.10027 -0.469386,0 z m -11.7477206,0.31726 h 6.3250438 c 0.555445,0 0.9972872,0.44183 0.9972906,0.99729 v 0.33415 c -3.4e-6,0.49927 -0.3571687,0.90693 -0.8328097,0.98429 v -1.15137 c -6.657e-4,-0.18281 -0.1487498,-0.33082 -0.3315614,-0.33156 H 4.6212305 c -0.1838368,-7.3e-4 -0.3334487,0.14773 -0.3341643,0.33156 3.329e-4,0.18409 0.1500745,0.33293 0.3341643,0.33222 h 1.508934 v 0.83281 H 2.3015924 v -0.83281 h 1.0076892 c 0.1840898,7.3e-4 0.3338049,-0.14813 0.3341643,-0.33222 -6.658e-4,-0.18383 -0.1503275,-0.33228 -0.3341643,-0.33156 H 2.3015924 Z m 13.1610846,0.15473 -2.354092,2.35409 c -0.129094,0.12983 -0.129094,0.33955 0,0.46939 0.129837,0.12909 0.33955,0.12909 0.469386,0 l 2.353447,-2.3541 c 0.129094,-0.12983 0.129094,-0.33955 0,-0.46938 -0.186682,-0.14398 -0.354858,-0.10719 -0.468741,0 z m -8.6667865,1.34185 h 1.3295009 v 2.19156 l -0.4303818,-0.42973 c -0.1297666,-0.12864 -0.3389709,-0.12864 -0.4687375,0 l -0.4303816,0.42973 z M 3.299532,286.04398 H 6.1301645 V 287.209 H 3.299532 c -0.1877746,0 -0.3315648,-0.14443 -0.3315648,-0.33221 v -0.49865 c -3.3e-6,-0.18779 0.1437802,-0.33416 0.3315648,-0.33416 z m 5.4915851,0 h 1.4991849 c 0.187784,0 0.331568,0.14637 0.331561,0.33416 v 0.49865 c 3e-6,0.18778 -0.143783,0.33221 -0.331561,0.33221 H 8.7911171 Z m -0.328965,1.83075 h 0.663126 c 0.555445,0 0.9979359,0.44444 0.9979399,0.99989 v 0.33157 c -4e-6,0.55544 -0.4424949,0.99793 -0.9979399,0.99793 H 2.8008834 v -0.83086 h 1.0096397 c 0.1838368,-7.3e-4 0.3322837,-0.15033 0.3315647,-0.33416 -6.658e-4,-0.18282 -0.1487431,-0.33086 -0.3315647,-0.33156 H 2.8008834 v -0.83281 H 6.461726 c 0.1129138,10e-4 0.1817432,-0.0411 0.2361729,-0.0981 l 0.7637172,-0.76195 0.7619432,0.76195 c 0.068181,0.0647 0.1459038,0.10341 0.2385928,0.0981 z m -3.3416273,0.83281 c -0.1830745,3.6e-4 -0.331498,0.14848 -0.3322138,0.33156 -6.656e-4,0.18408 0.148124,0.3338 0.3322138,0.33416 h 1.8398465 c 0.1848521,7.3e-4 0.3348867,-0.14931 0.3341643,-0.33416 -6.656e-4,-0.18384 -0.1503275,-0.33229 -0.3341643,-0.33156 z m -3.1530967,2.1623 h 6.3835578 c -0.037767,0.10479 -0.05851,0.21728 -0.05851,0.33416 0,0.54756 0.4523474,0.99794 0.9998868,0.99794 H 13.28542 c 0.547538,0 0.999885,-0.45038 0.999885,-0.99794 0,-0.11687 -0.02073,-0.2294 -0.05851,-0.33416 h 6.380955 c 0.187781,0 0.334164,0.14639 0.334164,0.33416 v 0.33157 c 0,0.73927 -0.592816,1.3321 -1.332101,1.3321 H 2.9679672 c -0.7392851,0 -1.3321006,-0.59283 -1.3321006,-1.3321 V 291.204 c 0,-0.18777 0.1437836,-0.33416 0.3315615,-0.33416 z m 7.3249339,0 h 3.993056 c 0.187761,0 0.334161,0.14635 0.334161,0.33416 0,0.18781 -0.1464,0.33157 -0.334161,0.33157 H 9.292362 c -0.1877613,0 -0.334161,-0.14376 -0.334161,-0.33157 0,-0.1878 0.1464097,-0.33416 0.334161,-0.33416 z m -1.9978264,0.66507 c -0.1848521,-7.3e-4 -0.3348867,0.14932 -0.3341643,0.33417 3.328e-4,0.18409 0.1500745,0.33293 0.3341643,0.33222 0.1830747,-7.5e-4 0.3312052,-0.14915 0.3315614,-0.33222 6.657e-4,-0.18384 -0.1477245,-0.33345 -0.3315614,-0.33417 z m 7.9887094,0 c -0.184853,-7.3e-4 -0.334887,0.14932 -0.334165,0.33417 3.34e-4,0.18409 0.150075,0.33293 0.334165,0.33222 0.183075,-7.5e-4 0.331205,-0.14915 0.331561,-0.33222 6.66e-4,-0.18384 -0.147724,-0.33345 -0.331561,-0.33417 z"
       sodipodi:nodetypes="ssccsccccscccsccscccccsssssscsssssscccssssssccsssssssccscscssscssccccccccssscccccccccccccccccccccccccccccsccsssscscsccccsssscccscccccccccsccsccscssssccssssssssssssssscscsscscs" />
  </g>
</svg>
