<svg id="visual" viewBox="0 0 900 900" width="900" height="900" xmlns="http://www.w3.org/2000/svg" xmlns:xlink="http://www.w3.org/1999/xlink" version="1.1"><rect width="900" height="900" fill="#001829"></rect><g><g transform="translate(350 478)"><path d="M0 -180L155.9 -90L155.9 90L0 180L-155.9 90L-155.9 -90Z" fill="#297EA6"></path></g><g transform="translate(790 822)"><path d="M0 -47L40.7 -23.5L40.7 23.5L0 47L-40.7 23.5L-40.7 -23.5Z" fill="#297EA6"></path></g><g transform="translate(22 839)"><path d="M0 -94L81.4 -47L81.4 47L0 94L-81.4 47L-81.4 -47Z" fill="#297EA6"></path></g><g transform="translate(556 128)"><path d="M0 -152L131.6 -76L131.6 76L0 152L-131.6 76L-131.6 -76Z" fill="#297EA6"></path></g><g transform="translate(897 459)"><path d="M0 -153L132.5 -76.5L132.5 76.5L0 153L-132.5 76.5L-132.5 -76.5Z" fill="#297EA6"></path></g></g></svg>