<?xml version="1.0" ?><svg id="Layer_1" style="enable-background:new 0 0 64 64;" version="1.1" viewBox="0 0 64 64" xml:space="preserve" xmlns="http://www.w3.org/2000/svg" xmlns:xlink="http://www.w3.org/1999/xlink"><g><path d="M40.50184,13.13l-3.88989,3.53998l1.05981,5.15002c0.06006,0.28998-0.0498,0.57996-0.29004,0.75995   c-0.25613,0.17754-0.58876,0.18059-0.80981,0.04004l-4.57007-2.60004L27.43202,22.62   c-0.26025,0.14996-0.57007,0.13-0.81006-0.04004c-0.24023-0.17999-0.36011-0.46997-0.30005-0.75995l1.07007-5.15002L23.50184,13.13   c-0.21997-0.20001-0.30005-0.51001-0.20996-0.79004c0.08984-0.27997,0.33984-0.47998,0.62988-0.51001L29.15174,11.25   l2.16016-4.79004c0.25-0.53998,1.12988-0.53998,1.37012,0L34.85194,11.25l5.21997,0.57996   c0.30005,0.03003,0.54004,0.23004,0.62988,0.51001C40.80189,12.62,40.7118,12.92999,40.50184,13.13z"/><path d="M53.38173,1.48999c-1.75167,0.29209-3.21188,1.01986-4.25977,2.70996c-0.14014-1.12994-0.31006-2.25-0.54004-3.34998   C48.51185,0.5,48.20179,0.25,47.85194,0.25h-31.7002c-0.35986,0-0.65991,0.25-0.73975,0.59998   C15.19178,1.95996,15.01185,3.07996,14.87196,4.19c-1.0154-1.64516-2.48136-2.43371-4.28003-2.70001   c-4.05557-0.45791-7.2215,3.73436-5.81006,7.71997c1.21821,3.67035,3.32173,7.88274,7.72998,13.09003   c2.06006,2.41998,6.18994,6.83997,10.69995,9.25c1.38624,1.10847,0.61996,3.47998-1.23999,3.47998   c-0.59009,0-1.12988-0.25-1.48999-0.67999c-0.26001-0.32001-0.73999-0.35999-1.0498-0.09998   c-0.32007,0.26996-0.37012,0.73999-0.1001,1.06c0.6499,0.77997,1.60986,1.21997,2.63989,1.21997   c2.36027,0,4.13017-2.3886,3.19019-4.73999c0.77979,0.85999,1.53979,1.65002,2.22998,2.34003v7.33997h-1.64014   c-0.40991,0-0.75,0.33002-0.75,0.75v5H19.912c-0.3501,0-0.64014,0.22998-0.72998,0.57001l-3.81006,15.03003   c-0.06006,0.21997-0.01001,0.45996,0.12988,0.63995c0.1499,0.17999,0.36011,0.29004,0.6001,0.29004h31.79981   c0.22998,0,0.4502-0.11005,0.59009-0.29004s0.19019-0.41998,0.13989-0.63995l-3.80981-15.03003   c-0.09009-0.34003-0.38989-0.57001-0.72998-0.57001h-5.09009v-5c0-0.41998-0.33984-0.75-0.75-0.75h-1.6499V34.13   c0.69995-0.69,1.45996-1.48004,2.23999-2.34003C38.68202,32.19,38.58192,32.62,38.58192,33.06   c0,1.91998,1.54004,3.46997,3.44995,3.46997c1.03003,0,1.98999-0.44,2.63989-1.21997c0.26025-0.32001,0.22021-0.79004-0.09985-1.06   c-0.32007-0.26001-0.79004-0.22003-1.06006,0.09998c-0.36011,0.42999-0.8999,0.67999-1.47998,0.67999   c-1.08008,0-1.94995-0.88-1.94995-1.96997c0-0.59003,0.26001-1.15002,0.70996-1.51001   c4.51001-2.41003,8.62988-6.83002,10.69995-9.25c6.27519-7.41262,7.38166-12.3666,7.72998-13.09003   C60.60293,5.30997,57.56831,1.02725,53.38173,1.48999z M13.65174,21.32996c-6.18894-7.31937-7.12476-11.9657-7.45996-12.62   C5.16628,5.83322,7.4124,2.64417,10.412,2.97998c3.69078,0.43483,5.06222,4.82776,2.5498,7.34003   c-0.29004,0.29999-0.29004,0.76996,0,1.06c0.29004,0.29999,0.77002,0.29999,1.06006,0   c0.21997-0.22003,0.41016-0.45001,0.59009-0.70001c0.57007,7.59998,4.91992,14.47998,9.05005,19.39001   C19.47181,27.75,15.61195,23.62,13.65174,21.32996z M39.61952,58.55737H24.38026c-0.41406,0-0.75-0.33594-0.75-0.75   s0.33594-0.75,0.75-0.75h15.23926c0.41406,0,0.75,0.33594,0.75,0.75S40.03358,58.55737,39.61952,58.55737z M39.61952,52.41577   c0.41406,0,0.75,0.33594,0.75,0.75s-0.33594,0.75-0.75,0.75H24.38026c-0.41406,0-0.75-0.33594-0.75-0.75s0.33594-0.75,0.75-0.75   H39.61952z M37.50184,42.96997v4.25h-11v-4.25H37.50184z M33.57191,34.94c-0.8501,0.76996-2.29004,0.76996-3.13989,0.00995   c-7.40335-6.81888-14.70551-16.46097-14.39014-26.56C16.10194,6.19,16.35194,3.95996,16.77186,1.75h30.45996   c0.41016,2.13995,0.6499,4.38,0.71997,6.64996C48.26258,18.34302,40.98661,28.25204,33.57191,34.94z M57.80189,8.70996   c-0.35151,0.69096-1.29811,5.38253-7.45996,12.61005c-1.94995,2.29999-5.81006,6.42999-10,8.75   c4.10986-4.90002,8.45996-11.77002,9.03979-19.35004c0.30029,0.5,0.63013,0.95001,0.98022,1.29999   c0.28979,0.29004,0.76978,0.29004,1.05981,0c0.29004-0.28998,0.29004-0.76996,0-1.06c-1.02002-1.01996-1.8999-3.12-1.54004-4.72998   c0.37688-1.6222,1.76637-3.00916,3.69019-3.25C56.57854,2.64834,58.83813,5.80451,57.80189,8.70996z"/></g></svg>