<?xml version="1.0" standalone="no"?>
<svg xmlns:xlink="http://www.w3.org/1999/xlink" id="wave" style="transform:rotate(180deg); transition: 0.3s" viewBox="0 0 1440 490" version="1.1" xmlns="http://www.w3.org/2000/svg"><defs><linearGradient id="sw-gradient-0" x1="0" x2="0" y1="1" y2="0"><stop stop-color="rgba(4.393, 27.739, 26.552, 1)" offset="0%"/><stop stop-color="rgba(22.116, 232.756, 244.034, 1)" offset="100%"/></linearGradient></defs><path style="transform:translate(0, 0px); opacity:1" fill="url(#sw-gradient-0)" d="M0,98L60,114.3C120,131,240,163,360,155.2C480,147,600,98,720,81.7C840,65,960,82,1080,73.5C1200,65,1320,33,1440,73.5C1560,114,1680,229,1800,285.8C1920,343,2040,343,2160,318.5C2280,294,2400,245,2520,253.2C2640,261,2760,327,2880,310.3C3000,294,3120,196,3240,155.2C3360,114,3480,131,3600,114.3C3720,98,3840,49,3960,49C4080,49,4200,98,4320,163.3C4440,229,4560,310,4680,310.3C4800,310,4920,229,5040,228.7C5160,229,5280,310,5400,310.3C5520,310,5640,229,5760,187.8C5880,147,6000,147,6120,196C6240,245,6360,343,6480,343C6600,343,6720,245,6840,204.2C6960,163,7080,180,7200,204.2C7320,229,7440,261,7560,294C7680,327,7800,359,7920,367.5C8040,376,8160,359,8280,326.7C8400,294,8520,245,8580,220.5L8640,196L8640,490L8580,490C8520,490,8400,490,8280,490C8160,490,8040,490,7920,490C7800,490,7680,490,7560,490C7440,490,7320,490,7200,490C7080,490,6960,490,6840,490C6720,490,6600,490,6480,490C6360,490,6240,490,6120,490C6000,490,5880,490,5760,490C5640,490,5520,490,5400,490C5280,490,5160,490,5040,490C4920,490,4800,490,4680,490C4560,490,4440,490,4320,490C4200,490,4080,490,3960,490C3840,490,3720,490,3600,490C3480,490,3360,490,3240,490C3120,490,3000,490,2880,490C2760,490,2640,490,2520,490C2400,490,2280,490,2160,490C2040,490,1920,490,1800,490C1680,490,1560,490,1440,490C1320,490,1200,490,1080,490C960,490,840,490,720,490C600,490,480,490,360,490C240,490,120,490,60,490L0,490Z"/><defs><linearGradient id="sw-gradient-1" x1="0" x2="0" y1="1" y2="0"><stop stop-color="rgba(25.225, 27.696, 27.739, 1)" offset="0%"/><stop stop-color="rgba(26.982, 216.712, 213.498, 1)" offset="100%"/></linearGradient></defs><path style="transform:translate(0, 50px); opacity:0.9" fill="url(#sw-gradient-1)" d="M0,294L60,285.8C120,278,240,261,360,228.7C480,196,600,147,720,171.5C840,196,960,294,1080,343C1200,392,1320,392,1440,392C1560,392,1680,392,1800,400.2C1920,408,2040,425,2160,375.7C2280,327,2400,212,2520,155.2C2640,98,2760,98,2880,155.2C3000,212,3120,327,3240,326.7C3360,327,3480,212,3600,179.7C3720,147,3840,196,3960,196C4080,196,4200,147,4320,138.8C4440,131,4560,163,4680,179.7C4800,196,4920,196,5040,187.8C5160,180,5280,163,5400,187.8C5520,212,5640,278,5760,277.7C5880,278,6000,212,6120,212.3C6240,212,6360,278,6480,269.5C6600,261,6720,180,6840,171.5C6960,163,7080,229,7200,245C7320,261,7440,229,7560,228.7C7680,229,7800,261,7920,277.7C8040,294,8160,294,8280,310.3C8400,327,8520,359,8580,375.7L8640,392L8640,490L8580,490C8520,490,8400,490,8280,490C8160,490,8040,490,7920,490C7800,490,7680,490,7560,490C7440,490,7320,490,7200,490C7080,490,6960,490,6840,490C6720,490,6600,490,6480,490C6360,490,6240,490,6120,490C6000,490,5880,490,5760,490C5640,490,5520,490,5400,490C5280,490,5160,490,5040,490C4920,490,4800,490,4680,490C4560,490,4440,490,4320,490C4200,490,4080,490,3960,490C3840,490,3720,490,3600,490C3480,490,3360,490,3240,490C3120,490,3000,490,2880,490C2760,490,2640,490,2520,490C2400,490,2280,490,2160,490C2040,490,1920,490,1800,490C1680,490,1560,490,1440,490C1320,490,1200,490,1080,490C960,490,840,490,720,490C600,490,480,490,360,490C240,490,120,490,60,490L0,490Z"/><defs><linearGradient id="sw-gradient-2" x1="0" x2="0" y1="1" y2="0"><stop stop-color="rgba(23.185, 22.189, 21.87, 1)" offset="0%"/><stop stop-color="rgba(11, 217.801, 255, 1)" offset="100%"/></linearGradient></defs><path style="transform:translate(0, 100px); opacity:0.8" fill="url(#sw-gradient-2)" d="M0,196L60,196C120,196,240,196,360,204.2C480,212,600,229,720,220.5C840,212,960,180,1080,155.2C1200,131,1320,114,1440,147C1560,180,1680,261,1800,318.5C1920,376,2040,408,2160,408.3C2280,408,2400,376,2520,375.7C2640,376,2760,408,2880,383.8C3000,359,3120,278,3240,204.2C3360,131,3480,65,3600,65.3C3720,65,3840,131,3960,147C4080,163,4200,131,4320,147C4440,163,4560,229,4680,220.5C4800,212,4920,131,5040,138.8C5160,147,5280,245,5400,269.5C5520,294,5640,245,5760,220.5C5880,196,6000,196,6120,220.5C6240,245,6360,294,6480,261.3C6600,229,6720,114,6840,122.5C6960,131,7080,261,7200,302.2C7320,343,7440,294,7560,269.5C7680,245,7800,245,7920,212.3C8040,180,8160,114,8280,138.8C8400,163,8520,278,8580,334.8L8640,392L8640,490L8580,490C8520,490,8400,490,8280,490C8160,490,8040,490,7920,490C7800,490,7680,490,7560,490C7440,490,7320,490,7200,490C7080,490,6960,490,6840,490C6720,490,6600,490,6480,490C6360,490,6240,490,6120,490C6000,490,5880,490,5760,490C5640,490,5520,490,5400,490C5280,490,5160,490,5040,490C4920,490,4800,490,4680,490C4560,490,4440,490,4320,490C4200,490,4080,490,3960,490C3840,490,3720,490,3600,490C3480,490,3360,490,3240,490C3120,490,3000,490,2880,490C2760,490,2640,490,2520,490C2400,490,2280,490,2160,490C2040,490,1920,490,1800,490C1680,490,1560,490,1440,490C1320,490,1200,490,1080,490C960,490,840,490,720,490C600,490,480,490,360,490C240,490,120,490,60,490L0,490Z"/></svg>