<?xml version="1.0" ?><svg viewBox="0 0 22.521 22.521" xmlns="http://www.w3.org/2000/svg"><g data-name="Layer 2" id="Layer_2"><g data-name="Layer 1" id="Layer_1-2"><path d="M13.534,20.245h-3.49a.341.341,0,0,1,0-.682h3.49A.341.341,0,0,1,13.534,20.245Zm-5.765-.682H2.616a.341.341,0,0,0,0,.682H7.769A.341.341,0,0,0,7.769,19.563ZM22.521,1.251V21.269a1.254,1.254,0,0,1-1.252,1.252H1.251A1.253,1.253,0,0,1,0,21.269V1.251A1.252,1.252,0,0,1,1.251,0H21.269A1.253,1.253,0,0,1,22.521,1.251Zm-21.839,0V17.288H21.838V1.251a.568.568,0,0,0-.569-.568H1.251A.568.568,0,0,0,.682,1.251ZM21.838,21.269v-3.3H.682v3.3a.569.569,0,0,0,.569.569H21.269A.569.569,0,0,0,21.838,21.269ZM8.115,13.638a1.911,1.911,0,0,1-1.5-.492A5.126,5.126,0,0,0,3.147,11.7H1.706a.341.341,0,0,0,0,.682H3.147c2.363-.069,2.841,1.912,4.761,1.95a2.683,2.683,0,0,0,2.621-2.725V7.274A2.7,2.7,0,0,0,8.183,4.563C6.092,4.368,5.566,6.592,3.147,6.5H1.706a.342.342,0,0,0,0,.683A6.039,6.039,0,0,0,6.619,5.734a1.949,1.949,0,0,1,3.227,1.54v4.332A2.01,2.01,0,0,1,8.115,13.638Zm6.222.679c2.083.2,2.631-2.033,5.036-1.935h1.441a.341.341,0,0,0,0-.682A6.034,6.034,0,0,0,15.9,13.146a1.95,1.95,0,0,1-3.228-1.54V7.275a1.973,1.973,0,0,1,3.485-1.323l-.94,1.856a.342.342,0,0,0,.086.417c.126.066,1.542,1.38,1.68,1.292a.344.344,0,0,0,.219-.6L15.951,7.874l.764-1.509a6.494,6.494,0,0,0,4.1.816.341.341,0,1,0,0-.682H19.373c-2.42.093-2.944-2.131-5.036-1.936a2.7,2.7,0,0,0-2.345,2.712v4.331A2.7,2.7,0,0,0,14.337,14.317Z" id="x-ray"/></g></g></svg>