<?xml version="1.0" standalone="no"?>
<!DOCTYPE svg PUBLIC "-//W3C//DTD SVG 20010904//EN"
 "http://www.w3.org/TR/2001/REC-SVG-20010904/DTD/svg10.dtd">
<svg version="1.0" xmlns="http://www.w3.org/2000/svg"
 width="612.000000pt" height="612.000000pt" viewBox="0 0 612.000000 612.000000"
 preserveAspectRatio="xMidYMid meet">

<g transform="translate(0.000000,612.000000) scale(0.100000,-0.100000)"
fill="#000000" stroke="none">
<path d="M4415 5219 c-16 -5 -210 -52 -430 -105 -220 -52 -483 -116 -585 -140
-102 -25 -336 -81 -520 -125 -844 -201 -1291 -308 -1306 -314 -8 -2 12 -98 57
-287 38 -156 71 -289 74 -296 4 -10 9 -10 27 2 13 8 37 17 55 21 33 7 42 1 71
-49 14 -24 29 -32 77 -42 81 -17 120 -17 135 1 16 19 133 21 147 3 6 -7 15
-26 20 -43 6 -18 19 -32 34 -36 43 -12 113 -9 133 6 23 17 35 18 55 6 12 -8
12 -12 2 -25 -7 -8 -10 -24 -7 -34 7 -22 -9 -39 -44 -44 -18 -2 -27 -12 -34
-36 -8 -28 -6 -36 13 -55 20 -21 30 -22 174 -22 l152 0 120 44 c196 70 244 75
267 26 15 -33 -7 -83 -41 -97 -83 -31 -436 -98 -522 -98 -68 0 -86 4 -154 36
-80 38 -95 57 -95 113 0 16 7 45 15 65 l15 36 -60 0 c-56 0 -60 -2 -75 -30 -8
-16 -15 -53 -15 -82 l0 -53 -58 -3 c-83 -5 -135 -18 -212 -56 -38 -19 -71 -32
-74 -30 -3 2 -4 1 -1 -3 3 -3 -26 -38 -63 -77 -125 -131 -167 -241 -160 -414
5 -121 29 -206 80 -279 16 -24 28 -50 25 -57 -3 -6 -41 -56 -86 -109 -45 -53
-81 -100 -81 -104 0 -5 33 -36 74 -70 l74 -62 50 57 c27 31 69 80 93 108 l43
51 55 -23 c31 -12 73 -25 94 -29 21 -4 40 -13 42 -19 1 -6 10 -45 20 -86 9
-41 41 -176 71 -300 30 -124 75 -310 100 -415 61 -258 63 -265 79 -265 7 0
143 31 302 70 158 38 497 119 753 180 256 61 537 128 625 150 88 21 268 64
400 95 132 31 283 67 336 81 52 13 115 28 140 33 63 13 320 78 323 82 2 2 -18
96 -46 209 -27 113 -82 345 -123 515 -275 1152 -300 1238 -389 1333 -16 17
-33 32 -38 32 -10 0 -69 -95 -90 -145 -10 -22 -24 -78 -33 -125 -8 -47 -18
-94 -21 -106 -4 -16 2 -26 28 -41 42 -25 68 -77 68 -135 0 -56 -60 -152 -121
-193 -24 -17 -46 -33 -49 -36 -11 -13 -208 -130 -265 -158 -92 -44 -224 -74
-338 -75 -92 -1 -100 1 -118 23 -22 27 -25 64 -6 80 8 6 81 15 163 20 82 5
167 16 189 24 153 55 200 76 280 121 49 28 111 72 138 98 40 40 47 53 47 86 0
30 -7 45 -30 67 -28 27 -33 28 -63 17 -19 -7 -42 -12 -52 -12 -10 0 -53 -22
-95 -50 -199 -127 -504 -239 -593 -216 -34 8 -60 57 -52 97 7 33 30 42 159 59
158 23 326 78 446 147 113 66 130 153 40 216 -34 24 -38 31 -30 48 6 10 20 19
31 19 25 0 91 -33 108 -54 8 -9 20 -16 27 -16 18 0 19 160 0 211 -16 46 -62
106 -87 114 -30 10 -73 -3 -110 -34 l-33 -28 42 -48 c49 -56 52 -76 16 -129
-60 -88 -160 -152 -339 -215 -66 -23 -131 -47 -145 -53 -51 -21 -171 -58 -191
-58 -22 0 -49 51 -49 94 0 35 32 50 154 70 174 28 353 94 426 155 42 35 51 94
20 134 -12 15 -25 27 -30 27 -5 0 -25 10 -43 23 -27 18 -33 27 -26 40 7 11 18
14 43 10 27 -4 47 3 104 36 77 45 82 51 75 97 -4 23 0 36 17 52 27 25 98 44
137 36 23 -4 42 5 101 46 64 46 72 55 72 84 0 35 21 71 42 71 18 1 17 1 -37
230 -26 110 -55 231 -64 269 -9 38 -21 70 -26 72 -6 1 -23 -2 -40 -7z m99
-601 c20 -33 -57 -107 -133 -128 -48 -13 -95 -14 -231 -5 -108 7 -120 6 -210
-21 -87 -26 -111 -28 -272 -31 -167 -2 -181 -3 -240 -29 -89 -37 -121 -41
-147 -15 -26 26 -27 62 -3 83 9 9 39 23 67 33 41 13 85 16 270 13 l220 -3 160
37 c365 85 496 102 519 66z m-564 -205 c79 -55 86 -71 59 -125 -12 -24 -28
-47 -36 -51 -8 -5 -36 -27 -62 -50 -109 -97 -127 -108 -296 -182 -159 -71
-167 -71 -178 -3 -12 74 0 84 158 128 140 39 258 109 291 172 19 37 11 62 -28
90 -28 20 -29 22 -12 29 33 13 79 10 104 -8z m-307 1 c33 -6 53 -24 26 -24 -6
0 -25 -11 -42 -23 -60 -44 -188 -108 -205 -103 -22 7 -53 62 -46 80 3 8 18 20
32 26 15 6 47 19 72 30 47 20 99 24 163 14z m-639 -30 c21 -20 20 -32 -3 -69
-15 -26 -25 -31 -62 -33 -112 -6 -176 -28 -289 -102 -66 -42 -136 -68 -273
-99 -104 -25 -134 -39 -173 -83 -50 -57 -82 -71 -166 -76 -177 -10 -172 80 7
149 142 54 196 70 309 90 157 28 196 43 290 112 109 82 135 96 209 112 85 18
132 18 151 -1z m303 -29 c49 -16 87 -86 84 -158 -1 -26 4 -57 10 -70 7 -12 12
-49 12 -82 -1 -54 7 -95 52 -285 7 -30 27 -83 45 -117 56 -110 115 -299 129
-410 5 -41 16 -84 24 -96 28 -42 30 -83 8 -147 -12 -33 -21 -73 -21 -90 0 -20
-8 -35 -25 -46 -31 -20 -31 -33 -3 -184 18 -101 20 -125 9 -160 -8 -28 -17
-40 -31 -40 -30 0 -77 79 -111 185 -25 75 -38 101 -65 125 -19 16 -43 30 -53
30 -13 0 -25 17 -42 57 -13 32 -39 74 -58 95 -29 30 -38 51 -53 125 -11 48
-23 117 -27 153 -4 36 -22 100 -40 143 -30 72 -32 85 -30 185 1 75 -3 123 -14
162 -10 30 -16 85 -16 121 1 51 -4 76 -24 115 -13 27 -28 60 -32 74 -15 50
-48 120 -56 120 -5 0 -9 -9 -9 -19 0 -18 -9 -19 -154 -17 -85 0 -152 4 -150 8
3 4 -2 5 -10 2 -30 -11 -15 11 27 42 59 43 77 49 187 62 52 7 56 6 78 -22 23
-31 28 -24 13 16 -8 21 -5 26 21 37 16 7 40 31 54 53 21 32 28 37 40 27 25
-21 112 -6 142 25 24 24 28 25 39 10 6 -9 29 -22 50 -29z m-797 -297 c-26 -43
-27 -104 -1 -118 29 -15 234 -12 358 5 59 8 123 17 141 19 29 4 34 1 47 -31
20 -47 19 -76 -2 -95 -15 -13 -59 -17 -223 -21 -209 -5 -284 1 -379 31 -42 13
-57 23 -68 48 -14 28 -14 37 1 86 14 48 20 57 58 75 85 41 93 41 68 1z m2083
-559 c13 -6 38 -33 56 -61 32 -48 33 -55 29 -118 -5 -62 -9 -73 -51 -127 -58
-76 -162 -173 -218 -204 -24 -13 -102 -49 -174 -78 -71 -30 -134 -58 -140 -63
-13 -12 18 -68 62 -110 32 -31 39 -33 101 -33 74 1 138 25 233 89 113 76 259
246 259 302 0 13 -14 40 -32 60 -24 27 -32 45 -31 71 2 82 49 60 78 -37 24
-78 17 -156 -22 -236 -76 -155 -160 -238 -327 -321 -55 -27 -104 -56 -109 -65
-8 -12 -3 -27 19 -63 28 -45 30 -46 71 -42 99 11 214 95 334 245 70 87 84 128
64 186 -31 87 -12 118 31 53 25 -37 28 -52 29 -118 0 -71 -2 -79 -38 -133 -39
-59 -144 -169 -253 -263 -48 -43 -56 -54 -44 -62 70 -49 262 65 327 193 21 41
24 60 21 119 -2 44 1 71 8 74 13 4 34 -62 34 -109 0 -74 -61 -199 -129 -262
-39 -37 -39 -51 0 -65 59 -20 88 -14 130 28 44 44 50 78 24 151 -17 47 -16 53
8 44 43 -16 60 -125 32 -205 -20 -56 -36 -73 -120 -123 -62 -36 -76 -41 -130
-40 -41 0 -74 8 -105 23 -72 36 -119 51 -222 71 -106 21 -141 38 -164 82 -34
66 -87 109 -206 169 -87 44 -133 74 -176 116 -54 53 -151 123 -170 123 -5 0
-19 12 -33 26 l-24 26 33 26 c30 25 32 31 32 92 0 47 5 71 18 88 l18 24 90
-17 c252 -48 522 16 681 160 129 116 137 152 62 256 -7 9 -9 27 -5 42 7 31 7
31 39 16z m-2389 -25 c8 -3 13 -11 10 -19 -3 -7 5 -15 18 -19 34 -9 58 -7 58
4 0 6 -8 10 -17 11 -10 0 -13 3 -6 5 13 6 81 -11 103 -26 13 -9 13 -11 1 -19
-23 -15 114 -143 152 -143 20 1 31 -7 44 -31 33 -60 42 -87 31 -84 -19 4 -20
-21 0 -41 15 -15 19 -35 20 -103 1 -49 -4 -95 -11 -110 -21 -46 -120 -159
-166 -191 -26 -19 -21 -38 12 -38 19 -1 17 -5 -17 -35 -44 -39 -54 -41 -82
-20 -24 18 -52 19 -69 1 -12 -12 -12 -15 0 -20 29 -11 13 -40 -26 -49 -24 -6
-27 -4 -33 27 l-6 33 -83 6 c-46 3 -90 7 -98 9 -15 3 -15 -1 -5 -44 9 -38 -13
-37 -95 4 -129 64 -224 192 -249 334 -35 195 29 366 175 470 47 33 82 47 57
22 -7 -7 -12 -18 -12 -25 0 -9 12 -6 38 11 21 13 52 27 71 31 24 5 30 10 22
18 -26 26 -7 34 86 36 34 0 68 -2 77 -5z m938 -127 c30 -57 -112 -133 -312
-166 -137 -22 -138 -22 -150 13 -32 86 -33 83 17 91 70 10 261 61 333 88 61
24 66 24 83 9 11 -9 23 -25 29 -35z m46 -229 c16 -16 15 -86 -2 -103 -23 -23
-167 -92 -238 -114 -37 -11 -91 -23 -120 -26 -29 -4 -63 -8 -75 -11 -21 -4
-23 -1 -23 46 0 53 2 56 55 63 50 7 179 46 221 66 22 11 63 35 93 55 57 39 71
42 89 24z m75 -188 c9 -11 23 -41 29 -66 12 -45 55 -94 82 -94 7 0 21 -9 32
-21 18 -20 18 -21 0 -52 -10 -18 -29 -61 -42 -97 -34 -89 -77 -163 -139 -240
-29 -36 -61 -87 -71 -115 -10 -27 -37 -78 -61 -112 -23 -33 -51 -91 -62 -128
-31 -100 -46 -120 -120 -155 -36 -18 -91 -56 -121 -85 -30 -28 -73 -58 -94
-65 -121 -40 -326 89 -326 205 0 44 30 26 51 -31 22 -57 46 -74 110 -74 49 0
109 24 109 44 0 14 -18 22 -113 46 -60 16 -134 84 -171 158 -41 81 -28 99 17
24 42 -68 89 -102 185 -134 67 -22 102 -23 147 -4 65 27 43 57 -63 86 -148 41
-299 137 -329 208 -26 61 -28 108 -7 116 24 9 53 -25 77 -93 10 -28 24 -57 32
-65 31 -30 214 -71 372 -82 l91 -7 51 38 c105 76 89 100 -61 90 -116 -8 -261
7 -342 35 -55 18 -166 85 -166 99 0 22 46 27 85 11 47 -20 284 -44 341 -35
142 24 188 60 192 153 4 82 -7 90 -95 67 -75 -19 -273 -33 -273 -19 0 5 18 36
41 69 l41 60 99 17 c149 27 226 68 330 178 88 93 112 104 142 70z m-703 -323
c0 -2 -10 -12 -22 -23 l-23 -19 19 23 c18 21 26 27 26 19z m-50 -47 c0 -5 -5
-10 -11 -10 -5 0 -7 5 -4 10 3 6 8 10 11 10 2 0 4 -4 4 -10z m-179 -105 c-2
-14 -46 -24 -62 -14 -11 6 -11 9 1 13 8 2 22 7 30 9 20 7 32 4 31 -8z"/>
<path d="M3800 2852 c0 -15 13 -48 28 -73 71 -110 230 -192 240 -122 4 27 -4
39 -83 129 -62 69 -102 94 -155 94 -26 0 -30 -3 -30 -28z"/>
<path d="M3193 2758 c-29 -32 -100 -177 -108 -221 -9 -46 0 -83 21 -91 23 -9
77 27 109 73 32 47 44 95 45 177 0 83 -26 107 -67 62z"/>
<path d="M5130 4010 c0 -5 5 -10 11 -10 5 0 7 5 4 10 -3 6 -8 10 -11 10 -2 0
-4 -4 -4 -10z"/>
<path d="M5167 3760 c-20 -4 -40 -10 -43 -13 -4 -3 3 -66 15 -139 32 -201 22
-181 89 -173 31 4 60 10 64 13 4 4 -5 78 -19 165 -29 174 -21 164 -106 147z"/>
<path d="M5306 3317 c3 -10 9 -15 12 -12 3 3 0 11 -7 18 -10 9 -11 8 -5 -6z"/>
<path d="M5195 3038 c-4 -17 10 -130 39 -302 25 -151 46 -277 46 -281 0 -14
30 -3 30 13 1 16 1 16 14 0 11 -16 20 -16 76 -6 l62 11 -5 46 c-3 25 -11 76
-17 114 -14 75 -13 75 -100 55 -50 -11 -51 -13 -46 -42 14 -84 16 -111 7 -91
-13 26 -74 402 -68 418 2 7 -4 30 -13 52 l-18 40 -7 -27z"/>
<path d="M5371 2934 c0 -11 3 -14 6 -6 3 7 2 16 -1 19 -3 4 -6 -2 -5 -13z"/>
<path d="M1505 2400 c-4 -7 2 -18 13 -26 12 -8 27 -20 34 -27 7 -7 32 -27 55
-45 69 -54 70 -31 1 28 -93 81 -95 83 -103 70z"/>
<path d="M1456 2341 c-26 -28 -30 -29 -51 -15 -21 14 -24 12 -61 -35 -21 -26
-82 -98 -134 -158 -198 -230 -335 -394 -335 -402 0 -4 47 -49 104 -100 101
-89 104 -91 124 -74 10 10 129 148 264 306 201 237 242 291 232 303 -10 12 -8
19 10 37 34 37 39 30 -110 154 -13 11 -20 8 -43 -16z"/>
</g>
</svg>
