<svg id="visual" viewBox="0 0 900 450" width="900" height="450" xmlns="http://www.w3.org/2000/svg" xmlns:xlink="http://www.w3.org/1999/xlink" version="1.1"><g stroke-width="1" stroke-linejoin="bevel"><path d="M477 178L481 122L427 159Z" fill="#19435d" stroke="#19435d"></path><path d="M481 122L379 128L427 159Z" fill="#19435d" stroke="#19435d"></path><path d="M477 178L560 140L481 122Z" fill="#246688" stroke="#246688"></path><path d="M560 140L560 123L481 122Z" fill="#15384f" stroke="#15384f"></path><path d="M560 123L478 0L481 122Z" fill="#297ea6" stroke="#297ea6"></path><path d="M481 122L401 0L379 128Z" fill="#15384f" stroke="#15384f"></path><path d="M526 290L583 235L477 178Z" fill="#00101c" stroke="#00101c"></path><path d="M477 178L583 235L560 140Z" fill="#1d4e6b" stroke="#1d4e6b"></path><path d="M718 55L613 0L560 123Z" fill="#277297" stroke="#277297"></path><path d="M431 307L477 178L427 159Z" fill="#0c2435" stroke="#0c2435"></path><path d="M431 307L526 290L477 178Z" fill="#0c2435" stroke="#0c2435"></path><path d="M478 0L401 0L481 122Z" fill="#205a7a" stroke="#205a7a"></path><path d="M329 325L431 307L427 159Z" fill="#081a28" stroke="#081a28"></path><path d="M291 55L276 140L379 128Z" fill="#112e42" stroke="#112e42"></path><path d="M379 128L329 325L427 159Z" fill="#246688" stroke="#246688"></path><path d="M401 0L291 55L379 128Z" fill="#112e42" stroke="#112e42"></path><path d="M401 0L321 0L291 55Z" fill="#1d4e6b" stroke="#1d4e6b"></path><path d="M697 199L560 123L560 140Z" fill="#081a28" stroke="#081a28"></path><path d="M560 123L613 0L478 0Z" fill="#0c2435" stroke="#0c2435"></path><path d="M431 307L462 365L526 290Z" fill="#1d4e6b" stroke="#1d4e6b"></path><path d="M637 347L663 271L583 235Z" fill="#112e42" stroke="#112e42"></path><path d="M362 382L462 365L431 307Z" fill="#19435d" stroke="#19435d"></path><path d="M273 292L329 325L379 128Z" fill="#205a7a" stroke="#205a7a"></path><path d="M276 140L273 292L379 128Z" fill="#246688" stroke="#246688"></path><path d="M637 347L583 235L526 290Z" fill="#277297" stroke="#277297"></path><path d="M583 235L697 199L560 140Z" fill="#19435d" stroke="#19435d"></path><path d="M663 271L697 199L583 235Z" fill="#081a28" stroke="#081a28"></path><path d="M276 140L224 212L273 292Z" fill="#15384f" stroke="#15384f"></path><path d="M169 74L224 212L276 140Z" fill="#15384f" stroke="#15384f"></path><path d="M281 450L362 382L329 325Z" fill="#205a7a" stroke="#205a7a"></path><path d="M329 325L362 382L431 307Z" fill="#19435d" stroke="#19435d"></path><path d="M588 450L526 290L462 365Z" fill="#205a7a" stroke="#205a7a"></path><path d="M588 450L637 347L526 290Z" fill="#246688" stroke="#246688"></path><path d="M663 271L762 218L697 199Z" fill="#15384f" stroke="#15384f"></path><path d="M697 199L718 55L560 123Z" fill="#246688" stroke="#246688"></path><path d="M224 212L205 300L273 292Z" fill="#00101c" stroke="#00101c"></path><path d="M273 292L205 331L329 325Z" fill="#1d4e6b" stroke="#1d4e6b"></path><path d="M165 0L169 74L291 55Z" fill="#0c2435" stroke="#0c2435"></path><path d="M291 55L169 74L276 140Z" fill="#277297" stroke="#277297"></path><path d="M224 212L133 205L205 300Z" fill="#15384f" stroke="#15384f"></path><path d="M410 450L460 450L462 365Z" fill="#19435d" stroke="#19435d"></path><path d="M410 450L462 365L362 382Z" fill="#19435d" stroke="#19435d"></path><path d="M281 450L410 450L362 382Z" fill="#297ea6" stroke="#297ea6"></path><path d="M832 0L731 0L718 55Z" fill="#297ea6" stroke="#297ea6"></path><path d="M718 55L731 0L613 0Z" fill="#0c2435" stroke="#0c2435"></path><path d="M797 300L762 218L663 271Z" fill="#081a28" stroke="#081a28"></path><path d="M697 199L776 109L718 55Z" fill="#277297" stroke="#277297"></path><path d="M120 341L205 331L205 300Z" fill="#277297" stroke="#277297"></path><path d="M205 300L205 331L273 292Z" fill="#1d4e6b" stroke="#1d4e6b"></path><path d="M762 218L776 109L697 199Z" fill="#1d4e6b" stroke="#1d4e6b"></path><path d="M460 450L588 450L462 365Z" fill="#15384f" stroke="#15384f"></path><path d="M637 347L730 349L663 271Z" fill="#297ea6" stroke="#297ea6"></path><path d="M321 0L165 0L291 55Z" fill="#15384f" stroke="#15384f"></path><path d="M169 74L133 205L224 212Z" fill="#15384f" stroke="#15384f"></path><path d="M86 97L133 205L169 74Z" fill="#205a7a" stroke="#205a7a"></path><path d="M672 450L730 349L637 347Z" fill="#246688" stroke="#246688"></path><path d="M205 331L281 450L329 325Z" fill="#205a7a" stroke="#205a7a"></path><path d="M165 0L128 0L169 74Z" fill="#15384f" stroke="#15384f"></path><path d="M588 450L672 450L637 347Z" fill="#19435d" stroke="#19435d"></path><path d="M779 355L797 300L730 349Z" fill="#0c2435" stroke="#0c2435"></path><path d="M730 349L797 300L663 271Z" fill="#205a7a" stroke="#205a7a"></path><path d="M900 216L900 91L776 109Z" fill="#00101c" stroke="#00101c"></path><path d="M128 0L86 97L169 74Z" fill="#081a28" stroke="#081a28"></path><path d="M672 450L779 355L730 349Z" fill="#246688" stroke="#246688"></path><path d="M79 278L120 341L205 300Z" fill="#112e42" stroke="#112e42"></path><path d="M205 331L176 450L281 450Z" fill="#1d4e6b" stroke="#1d4e6b"></path><path d="M79 278L205 300L133 205Z" fill="#277297" stroke="#277297"></path><path d="M900 91L832 0L776 109Z" fill="#00101c" stroke="#00101c"></path><path d="M776 109L832 0L718 55Z" fill="#277297" stroke="#277297"></path><path d="M0 210L79 278L133 205Z" fill="#297ea6" stroke="#297ea6"></path><path d="M120 341L176 450L205 331Z" fill="#19435d" stroke="#19435d"></path><path d="M128 450L176 450L120 341Z" fill="#15384f" stroke="#15384f"></path><path d="M900 216L776 109L762 218Z" fill="#297ea6" stroke="#297ea6"></path><path d="M900 216L762 218L797 300Z" fill="#277297" stroke="#277297"></path><path d="M900 284L900 216L797 300Z" fill="#205a7a" stroke="#205a7a"></path><path d="M0 357L128 450L120 341Z" fill="#246688" stroke="#246688"></path><path d="M0 0L0 117L86 97Z" fill="#15384f" stroke="#15384f"></path><path d="M86 97L0 210L133 205Z" fill="#19435d" stroke="#19435d"></path><path d="M79 278L0 357L120 341Z" fill="#1d4e6b" stroke="#1d4e6b"></path><path d="M900 333L797 300L779 355Z" fill="#1d4e6b" stroke="#1d4e6b"></path><path d="M900 333L900 284L797 300Z" fill="#0c2435" stroke="#0c2435"></path><path d="M0 117L0 210L86 97Z" fill="#0c2435" stroke="#0c2435"></path><path d="M900 91L900 0L832 0Z" fill="#19435d" stroke="#19435d"></path><path d="M837 450L900 333L779 355Z" fill="#19435d" stroke="#19435d"></path><path d="M0 210L0 288L79 278Z" fill="#15384f" stroke="#15384f"></path><path d="M128 0L0 0L86 97Z" fill="#19435d" stroke="#19435d"></path><path d="M672 450L837 450L779 355Z" fill="#297ea6" stroke="#297ea6"></path><path d="M0 288L0 357L79 278Z" fill="#277297" stroke="#277297"></path><path d="M837 450L900 450L900 333Z" fill="#246688" stroke="#246688"></path><path d="M0 357L0 450L128 450Z" fill="#205a7a" stroke="#205a7a"></path></g></svg>